<svg xmlns="http://www.w3.org/2000/svg" width="10" height="12" viewBox="0 0 10 12">
    <g fill="none" fill-rule="evenodd">
        <g fill="#8B8D8E" fill-rule="nonzero">
            <g>
                <g>
                    <path d="M8.16 4.5h-.374V3c0-1.655-1.346-3-3-3-1.655 0-3 1.345-3 3v1.5H1.41C.79 4.5.286 5.005.286 5.625v5.25C.286 11.495.79 12 1.41 12h6.75c.62 0 1.125-.505 1.125-1.125v-5.25c0-.62-.505-1.125-1.125-1.125zM2.787 3c0-1.103.897-2 2-2s2 .897 2 2v1.5h-4V3zm2.5 5.361V9.5c0 .276-.224.5-.5.5-.277 0-.5-.224-.5-.5V8.361c-.298-.174-.5-.493-.5-.861 0-.551.448-1 1-1 .551 0 1 .449 1 1 0 .369-.203.688-.5.861z" transform="translate(-565.000000, -799.000000) translate(565.000000, 794.000000) translate(0.000000, 5.000000)"/>
                </g>
            </g>
        </g>
    </g>
</svg>
