<svg id="Like_Copy" data-name="Like Copy" xmlns="http://www.w3.org/2000/svg" xmlns:xlink="http://www.w3.org/1999/xlink" width="72" height="87" viewBox="0 0 72 87">
  <defs>
    <clipPath id="clip-path">
      <path id="Clip_6" data-name="Clip 6" d="M0,0H2.733V8.794H0Z" fill="none"/>
    </clipPath>
  </defs>
  <g id="Group_16" data-name="Group 16" transform="translate(0.767 1.526)">
    <path id="Fill_1" data-name="Fill 1" d="M5.362,39.684v0L0,2.29,16.086,0l3.064,1.526,4.6,32.052-1.532,3.054L5.363,39.684Zm9.669-24.262a1.2,1.2,0,0,0-.121.007.85.85,0,0,0-.561.333.838.838,0,0,0-.162.629l1.79,12.341a.856.856,0,0,0,.844.729.922.922,0,0,0,.123-.01.851.851,0,0,0,.72-.963l-1.79-12.34A.852.852,0,0,0,15.031,15.422ZM14.136,9.25a.871.871,0,0,0-.683.342.836.836,0,0,0-.161.628.857.857,0,0,0,.844.728.747.747,0,0,0,.123-.008.849.849,0,0,0,.72-.963A.852.852,0,0,0,14.136,9.25Z" transform="translate(0.443 44.006)" fill="#09c"/>
    <path id="Fill_3" data-name="Fill 3" d="M6.218,68.2a.855.855,0,0,1-.842-.728L.009,30.449a.849.849,0,0,1,.721-.962l15.484-2.229A3.978,3.978,0,0,1,20.166,29.1l.317.508.558-.224c6.55-2.662,21.607-10.089,19.95-21.524l-.225-1.541a5.536,5.536,0,0,1,4.7-6.26A5.354,5.354,0,0,1,46.241,0a5.585,5.585,0,0,1,5.5,4.683c.1.328.207.862.35,1.683a38.457,38.457,0,0,1-.232,14.785l-.237,1.011L64.21,20.35a5.815,5.815,0,0,1,.8-.056,5.523,5.523,0,0,1,2.56,10.426l-.816.423.618.683a5.509,5.509,0,0,1-1.546,8.59l-.812.424.612.679a5.535,5.535,0,0,1-1.565,8.606l-.816.422.616.681a5.522,5.522,0,0,1-3.327,9.164l-16.648,2.4a54.576,54.576,0,0,1-7.9.653,68.727,68.727,0,0,1-7.865-.588l-2.871-.319-.165.577a3.98,3.98,0,0,1-3.258,2.85L6.341,68.191A.729.729,0,0,1,6.218,68.2ZM16.784,28.915a2.036,2.036,0,0,0-.328.025L1.815,31.047,6.941,66.39l14.641-2.107a2.271,2.271,0,0,0,1.926-2.569L19.035,30.861A2.288,2.288,0,0,0,16.784,28.915ZM46.255,1.7a3.724,3.724,0,0,0-.549.038,3.834,3.834,0,0,0-3.252,4.335l.222,1.543c1.916,13.213-15.844,21.313-21.333,23.48l-.523.207L25.1,60.816l.55.058c.837.088,1.63.177,2.329.256l.332.037.025,0A66.558,66.558,0,0,0,36,61.75a52.722,52.722,0,0,0,7.64-.643l16.648-2.4a3.827,3.827,0,1,0-1.1-7.574l-4.645.668a.72.72,0,0,1-.121.01.849.849,0,0,1-.123-1.69l7.743-1.114a3.827,3.827,0,0,0-.547-7.616,3.989,3.989,0,0,0-.551.04L56.3,42.1a.927.927,0,0,1-.121.01.849.849,0,0,1-.121-1.69l7.74-1.114a3.827,3.827,0,0,0-.546-7.616,3.774,3.774,0,0,0-.553.04l-4.645.669a.888.888,0,0,1-.121.007.848.848,0,0,1-.121-1.688l7.742-1.114A3.827,3.827,0,0,0,65,21.991a3.753,3.753,0,0,0-.55.041l-20.129,2.9a.882.882,0,0,1-.121.008.852.852,0,0,1-.842-.728.85.85,0,0,1,.72-.962l5.669-.816.127-.441c.972-3.367,1.8-9,.243-16.69-.012-.059-.022-.11-.032-.155-.016-.079-.028-.135-.033-.172A3.86,3.86,0,0,0,46.255,1.7Z" transform="translate(0 16.304)" fill="#333"/>
    <g id="Group_7" data-name="Group 7" transform="translate(42.36 0)">
      <path id="Clip_6-2" data-name="Clip 6" d="M0,0H2.733V8.794H0Z" transform="translate(0 0)" fill="none"/>
      <g id="Group_7-2" data-name="Group 7" transform="translate(0 0)" clip-path="url(#clip-path)">
        <path id="Fill_5" data-name="Fill 5" d="M.853,0A.854.854,0,0,0,.009.972l1.028,7.1a.852.852,0,0,0,.844.727A.839.839,0,0,0,2,8.787a.853.853,0,0,0,.722-.962L1.7.73A.853.853,0,0,0,.853,0" transform="translate(0 -0.001)" fill="#333"/>
      </g>
    </g>
    <path id="Fill_8" data-name="Fill 8" d="M7.046,0a.844.844,0,0,0-.123.009L.73.9a.849.849,0,1,0,.244,1.68L7.167,1.69A.849.849,0,0,0,7.046,0" transform="translate(26.598 21.22)" fill="#333"/>
    <path id="Fill_10" data-name="Fill 10" d="M7.047,0a.844.844,0,0,0-.123.009L.73.9A.849.849,0,0,0,.853,2.59a.808.808,0,0,0,.121-.009L7.168,1.69A.849.849,0,0,0,7.047,0" transform="translate(57.564 16.764)" fill="#333"/>
    <path id="Fill_12" data-name="Fill 12" d="M4.6,0a.813.813,0,0,0-.123.009A.849.849,0,0,0,3.916.34L.169,5.333A.849.849,0,0,0,.342,6.522a.834.834,0,0,0,.5.163.859.859,0,0,0,.689-.334L5.279,1.358A.841.841,0,0,0,5.442.73.849.849,0,0,0,4.6,0" transform="translate(52.672 4.458)" fill="#333"/>
    <path id="Fill_14" data-name="Fill 14" d="M.855,0A.87.87,0,0,0,.729.009a.849.849,0,0,0-.388,1.52L5.354,5.261a.844.844,0,0,0,.507.169.86.86,0,0,0,.685-.34A.847.847,0,0,0,6.373,3.9L1.362.168A.852.852,0,0,0,.855,0" transform="translate(30.144 8.239)" fill="#333"/>
  </g>
</svg>
