<svg id="Group_3" data-name="Group 3" xmlns="http://www.w3.org/2000/svg" width="130" height="130" viewBox="0 0 130 130">
  <path id="Stroke_5" data-name="Stroke 5" d="M65,130A65.017,65.017,0,0,1,39.7,5.108,65.017,65.017,0,0,1,90.3,124.892,64.593,64.593,0,0,1,65,130ZM65,10.312A54.688,54.688,0,1,0,119.687,65,54.75,54.75,0,0,0,65,10.312Z" fill="#e7e7e7"/>
  <path id="Stroke_11" data-name="Stroke 11" d="M5.145,0A64.855,64.855,0,0,1,70,64.855a5.145,5.145,0,0,1-10.289,0A54.566,54.566,0,0,0,5.145,10.289,5.145,5.145,0,0,1,5.145,0Z" transform="translate(60)" fill="#09c"/>
  <animateTransform attributeName="transform" type="rotate" dur=".5s" values="0 0 0;360 0 0" repeatCount="indefinite"/>
</svg>

