<svg xmlns="http://www.w3.org/2000/svg" width="14" height="14" viewBox="0 0 14 14">
    <g fill="none" fill-rule="evenodd">
        <g fill="#8B8D8E" fill-rule="nonzero">
            <g>
                <path d="M7 0C3.14 0 0 3.14 0 7s3.14 7 7 7 7-3.14 7-7-3.14-7-7-7zm0 13.125C3.623 13.125.875 10.377.875 7S3.623.875 7 .875 13.125 3.623 13.125 7 10.377 13.125 7 13.125z" transform="translate(-878.000000, -93.000000) translate(885.000000, 100.000000) scale(-1, 1) translate(-885.000000, -100.000000) translate(878.000000, 93.000000)"/>
                <path d="M7.038 3L6 3 6 7.987 9.266 11 10 10.323 7.038 7.59z" transform="translate(-878.000000, -93.000000) translate(885.000000, 100.000000) scale(-1, 1) translate(-885.000000, -100.000000) translate(878.000000, 93.000000)"/>
            </g>
        </g>
    </g>
</svg>
